# xmcd
#
# Track frame offsets:
#	150
#	16831
#	30699
#	44876
#	61466
#	78730
#	95617
#	108470
#	127082
#	143448
#	160969
#	176993
#
# Disc length: 2609 seconds
# Revision: 1
# Processed by: cddbd v1.5.2PL0 Copyright (c) Steve Scherf et al.
# Submitted via: dBpowerAMP V12.0
#
DISCID=ab0a2f0c
DTITLE=Graham Rodger - This Old Guitar of Mine
DYEAR=2005
DGENRE=Country
TTITLE0=this old guitar of mine
TTITLE1=tonesie
TTITLE2=the wheels of cobb and co
TTITLE3=missing in action
TTITLE4=the b and s ball
TTITLE5=santa's new rig
TTITLE6=country towns
TTITLE7=burke and wills
TTITLE8=true blue country
TTITLE9=i never meant to hurt you
TTITLE10=why do we write
TTITLE11=where the copper flows
EXTD=
EXTT0=
EXTT1=
EXTT2=
EXTT3=
EXTT4=
EXTT5=
EXTT6=
EXTT7=
EXTT8=
EXTT9=
EXTT10=
EXTT11=
PLAYORDER=
